<svg width="239" height="41" viewBox="0 0 239 41" fill="none" xmlns="http://www.w3.org/2000/svg">
<g clip-path="url(#clip0_1109_3419)">
<path d="M0 28.55H4.46C4.46 33.01 8.09 36.58 13.92 36.58C18.98 36.58 22.61 34.11 22.61 30.09C22.61 18.05 1.33 26.46 1.33 11.06C1.32 5.56003 5.88 0.780029 13.64 0.780029C19.47 0.780029 26.29 3.97003 26.29 11.94H21.73C21.73 7.54003 18.81 4.85003 13.59 4.85003C8.37 4.85003 5.78 7.87003 5.78 11.06C5.78 21.56 27.12 14.25 27.12 29.81C27.12 35.86 22.17 40.7 13.76 40.7C6.12 40.7 0.01 35.7 0.01 28.55H0ZM34.26 1.49003H38.82L58.95 32.23H59.28V1.49003H63.68V39.98H58.95L39.04 9.24003H38.71V39.98H34.26V1.49003ZM84.04 1.49003H89.26L104.05 39.98H99.38L95.92 30.85H77.33L73.87 39.98H69.2L84.04 1.49003ZM94.38 26.79L86.79 6.66003H86.46L78.87 26.79H94.38ZM109.56 1.49003H122.59C130.45 1.49003 135.13 6.11003 135.13 12.87C135.13 18.53 131.45 22.71 127.1 23.98L136.12 39.98H130.95L122.43 24.42H114.02V39.98H109.56V1.49003ZM122.59 20.47C127.1 20.47 130.51 17.94 130.51 12.88C130.51 8.81003 127.76 5.46003 122.32 5.46003H114.02V20.47H122.6H122.59ZM164.89 39.99L152.74 21.29L147.46 27.45V39.99H143V1.49003H147.46V20.9H147.79L164.17 1.49003H169.72L155.75 17.77L170.38 39.99H164.88H164.89Z" fill="#2C2B2F"/>
<path d="M184.58 0.0600548L234.01 7.84005C236.76 8.27005 238.62 10.8601 238.16 13.6001L234.45 35.8901C234.05 38.3001 231.96 40.0701 229.52 40.0701H184.48C182.83 40.0701 181.28 39.2501 180.35 37.8801L168.73 20.8101C167.47 18.9601 167.59 16.4901 169.04 14.7801L179.97 1.78005C181.1 0.440055 182.84 -0.209945 184.57 0.0600548H184.58ZM190.43 30.3501H193.86V26.2501H191.68C190.21 26.2501 189.5 25.4801 189.5 24.2301V17.3101H193.92V13.4301H189.5V8.85005H184.79V11.9601C184.79 12.8601 184.31 13.4701 183.41 13.4701H181.81V17.3201H184.53V24.5001C184.53 28.2201 186.74 30.3701 190.43 30.3701V30.3501ZM205.12 30.7701C210.57 30.7701 214.26 26.8901 214.26 21.8901C214.26 16.8901 210.57 13.0101 205.16 13.0101C199.75 13.0101 196.02 16.8901 196.02 21.8901C196.02 26.8901 199.71 30.7701 205.12 30.7701ZM205.12 26.2801C202.78 26.2801 201.05 24.4801 201.05 21.8901C201.05 19.3001 202.78 17.5001 205.12 17.5001C207.46 17.5001 209.22 19.3301 209.22 21.8901C209.22 24.4501 207.49 26.2801 205.12 26.2801ZM217.53 30.3501H222.5V22.6601C222.5 19.7401 224.07 17.9801 226.51 17.9801H228.47V13.3001H226.84C224.56 13.3001 223.06 14.7401 222.48 15.9901H222.22V13.4301H217.54V30.3601L217.53 30.3501Z" fill="url(#paint0_linear_1109_3419)"/>
</g>
<defs>
<linearGradient id="paint0_linear_1109_3419" x1="183.289" y1="4.77748" x2="198.03" y2="45.2371" gradientUnits="userSpaceOnUse">
<stop stop-color="#557FFF"/>
<stop offset="1" stop-color="#C19AFF"/>
</linearGradient>
<clipPath id="clip0_1109_3419">
<rect width="238.23" height="40.7" fill="white"/>
</clipPath>
</defs>
</svg>
