<svg width="118" height="20" viewBox="0 0 118 20" fill="none" xmlns="http://www.w3.org/2000/svg">
<g id="Layer_1" clip-path="url(#clip0_1547_14022)">
<path id="Vector" d="M0 14.0295H2.20252C2.20252 16.2211 3.99515 17.9754 6.87423 17.9754C9.37305 17.9754 11.1657 16.7617 11.1657 14.7862C11.1657 8.86979 0.656805 13.0025 0.656805 5.4349C0.651866 2.7322 2.90377 0.383301 6.73595 0.383301C9.61503 0.383301 12.983 1.95087 12.983 5.86733H10.7311C10.7311 3.70517 9.28909 2.3833 6.71126 2.3833C4.13343 2.3833 2.85438 3.86733 2.85438 5.4349C2.85438 10.5946 13.3929 7.00246 13.3929 14.6487C13.3929 17.6216 10.9484 20 6.79521 20C3.02229 20 0.00493838 17.543 0.00493838 14.0295H0ZM16.9189 0.732195H19.1708L29.1118 15.8378H29.2747V0.732195H31.4476V19.6462H29.1118L19.2794 4.54055H19.1165V19.6462H16.9189V0.732195ZM41.5022 0.732195H44.08L51.3839 19.6462H49.0776L47.3689 15.1597H38.1885L36.4798 19.6462H34.1736L41.5022 0.732195ZM46.6084 13.1646L42.8602 3.27274H42.6972L38.949 13.1646H46.6084ZM54.1049 0.732195H60.5396C64.4212 0.732195 66.7323 3.00247 66.7323 6.32433C66.7323 9.10566 64.915 11.1597 62.7668 11.7838L67.2212 19.6462H64.6681L60.4606 12H56.3074V19.6462H54.1049V0.732195ZM60.5396 10.059C62.7668 10.059 64.4508 8.81573 64.4508 6.32925C64.4508 4.32925 63.0928 2.68306 60.4063 2.68306H56.3074V10.059H60.5446H60.5396ZM81.429 19.6511L75.4288 10.4619L72.8214 13.489V19.6511H70.6189V0.732195H72.8214V10.2703H72.9843L81.0734 0.732195H83.8142L76.9153 8.73219L84.1401 19.6511H81.424H81.429Z" fill="#2C2B2F"/>
<path id="Vector_2" d="M91.1525 0.0295709L115.563 3.85267C116.921 4.06397 117.84 5.3367 117.612 6.68314L115.78 17.6365C115.583 18.8207 114.551 19.6905 113.346 19.6905H91.1032C90.2883 19.6905 89.5229 19.2876 89.0636 18.6143L83.3252 10.2261C82.703 9.31704 82.7622 8.10328 83.4783 7.26299L88.8759 0.87478C89.434 0.216303 90.2933 -0.103107 91.1476 0.0295709H91.1525ZM94.0415 14.9141H95.7354V12.8994H94.6588C93.9328 12.8994 93.5822 12.521 93.5822 11.9067V8.50623H95.765V6.5996H93.5822V4.34898H91.2562V5.87724C91.2562 6.3195 91.0192 6.61925 90.5748 6.61925H89.7846V8.51115H91.1279V12.0394C91.1279 13.8674 92.2192 14.9239 94.0415 14.9239V14.9141ZM101.296 15.1205C103.987 15.1205 105.81 13.2138 105.81 10.7568C105.81 8.29984 103.987 6.39321 101.316 6.39321C98.6441 6.39321 96.8021 8.29984 96.8021 10.7568C96.8021 13.2138 98.6243 15.1205 101.296 15.1205ZM101.296 12.9141C100.14 12.9141 99.2861 12.0296 99.2861 10.7568C99.2861 9.48412 100.14 8.5996 101.296 8.5996C102.452 8.5996 103.321 9.49886 103.321 10.7568C103.321 12.0148 102.466 12.9141 101.296 12.9141ZM107.425 14.9141H109.879V11.1352C109.879 9.70033 110.654 8.83547 111.859 8.83547H112.827V6.53571H112.022C110.896 6.53571 110.155 7.24333 109.869 7.85758H109.741V6.5996H107.429V14.919L107.425 14.9141Z" fill="url(#paint0_linear_1547_14022)"/>
</g>
<defs>
<linearGradient id="paint0_linear_1547_14022" x1="90.515" y1="2.34771" x2="97.7313" y2="22.2525" gradientUnits="userSpaceOnUse">
<stop stop-color="#557FFF"/>
<stop offset="1" stop-color="#C19AFF"/>
</linearGradient>
<clipPath id="clip0_1547_14022">
<rect width="117.647" height="20" fill="white"/>
</clipPath>
</defs>
</svg>
